#!OML:ASF X:\für Bonn\!DataBase\2005_08_12_Daniel\c3d\Daniel.ASF
:FULLY-SPECIFIED
:DEGREES
3320
root 1.9972 17.2954 0.70152 -941.953 -79.3797 -141.928
lowerback 14.7538 -1.49789 9.02729
upperback 3.44193 -0.742275 2.05468
thorax -4.67076 -0.554058 -2.77135
lowerneck -4.42008 2.40345 0.420588
upperneck 6.35914 3.43857 -4.26311
head 2.89732 1.55304 -1.31913
rclavicle 2.74323e-014 -9.93923e-016
rhumerus -39.5605 -17.344 -69.1626
rradius 25.5754
rwrist 6.33598
rhand -25.0835 15.8634
rfingers 7.12502
rthumb 1.43096 -14.1116
lclavicle 2.74323e-014 -9.93923e-016
lhumerus -67.063 53.187 35.6767
lradius 18.7716
lwrist -42.8164
lhand -9.4685 -6.14848
lfingers 7.12502
lthumb 16.4954 23.1703
rfemur 1.45993 25.985 32.7493
rtibia 28.413
rfoot -41.8059 -27.5263
rtoes -10.2742
lfemur -16.3275 5.80202 -9.986
ltibia 51.209
lfoot -29.7433 3.30623
ltoes -16.2502
3321
root 2.00667 17.3082 0.682388 -943.359 -80.0372 -140.554
lowerback 14.6774 -1.45158 8.66919
upperback 3.44668 -0.740264 2.0123
thorax -4.62291 -0.545003 -2.61805
lowerneck -4.35307 2.30946 0.185272
upperneck 6.10603 3.31294 -4.14685
head 2.78715 1.49461 -1.24471
rclavicle 1.20762e-014 3.16068e-014
rhumerus -39.7556 -18.0379 -69.3018
rradius 25.1747
rwrist 6.21007
rhand -24.6282 15.4673
rfingers 7.12502
rthumb 1.8707 -14.5042
lclavicle 1.20762e-014 3.16068e-014
lhumerus -65.0913 52.6773 38.0408
lradius 19.1495
lwrist -41.2999
lhand -9.33925 -6.04204
lfingers 7.12502
lthumb 16.6199 23.2664
rfemur 1.43133 25.0753 32.382
rtibia 28.2622
rfoot -41.4816 -27.355
rtoes -9.91873
lfemur -16.1187 5.37355 -10.2119
ltibia 50.6414
lfoot -29.7128 2.38409
ltoes -16.3659
3322
root 2.0169 17.3215 0.665893 -944.808 -80.6398 -139.155
lowerback 14.6431 -1.38396 8.35304
upperback 3.46136 -0.701286 1.94682
thorax -4.58394 -0.518828 -2.51895
lowerneck -4.31076 2.19726 -0.081059
upperneck 5.86745 3.16267 -3.97926
head 2.68509 1.42463 -1.14921
rclavicle -4.07509e-015 1.49089e-014
rhumerus -39.9743 -18.7113 -69.4832
rradius 24.7889
rwrist 6.24963
rhand -24.0773 15.1068
rfingers 7.12502
rthumb 2.40268 -14.8594
lclavicle -4.07509e-015 1.49089e-014
lhumerus -63.0375 52.0903 40.4205
lradius 19.4874
lwrist -39.8503
lhand -9.26737 -5.90895
lfingers 7.12502
lthumb 16.6891 23.3936
rfemur 1.40376 24.153 32.0012
rtibia 28.1307
rfoot -41.1338 -27.1007
rtoes -9.57224
lfemur -15.8724 4.95783 -10.4211
ltibia 50.0783
lfoot -29.6498 1.37163
ltoes -16.1856
3323
root 2.02668 17.3331 0.651293 -946.517 -81.2674 -137.493
lowerback 14.6127 -1.32702 8.05812
upperback 3.4731 -0.673064 1.85476
thorax -4.55192 -0.498366 -2.45754
lowerneck -4.30558 2.07311 -0.381176
upperneck 5.65815 2.99623 -3.73757
head 2.59836 1.34761 -1.02464
rclavicle 1.93318e-014 -1.13307e-014
rhumerus -40.1785 -19.3578 -69.7047
rradius 24.3939
rwrist 6.45693
rhand -23.4517 14.8124
rfingers 7.12502
rthumb 3.0069 -15.1461
lclavicle 1.93318e-014 -1.13307e-014
lhumerus -60.8578 51.3156 42.9581
lradius 19.9064
lwrist -38.2457
lhand -9.03725 -5.70248
lfingers 7.12502
lthumb 16.9106 23.5813
rfemur 1.37864 23.256 31.6184
rtibia 28.0162
rfoot -40.8591 -26.8732
rtoes -9.20269
lfemur -15.6463 4.4987 -10.6546
ltibia 49.5247
lfoot -29.591 0.346112
ltoes -16.0308
3324
root 2.035 17.3445 0.637775 -948.255 -81.865 -135.783
lowerback 14.5714 -1.26202 7.72038
upperback 3.47827 -0.639884 1.79269
thorax -4.52015 -0.475458 -2.34109
lowerneck -4.3233 1.95947 -0.730502
upperneck 5.50215 2.85077 -3.5281
head 2.53543 1.27736 -0.901627
rclavicle 3.13086e-015 -2.5842e-015
rhumerus -40.3887 -19.7216 -69.999
rradius 24.089
rwrist 6.72833
rhand -22.8308 14.579
rfingers 7.12502
rthumb 3.60646 -15.3703
lclavicle 3.13086e-015 -2.5842e-015
lhumerus -58.969 50.5835 45.2534
lradius 20.3979
lwrist -36.7733
lhand -8.72892 -5.60825
lfingers 7.12502
lthumb 17.2074 23.6499
rfemur 1.3237 22.3259 31.1997
rtibia 27.9191
rfoot -40.5181 -26.5964
rtoes -8.8596
lfemur -15.4296 4.11811 -10.8896
ltibia 48.9826
lfoot -29.5155 -0.679975
ltoes -15.8293
3325
root 2.0436 17.3558 0.626157 -950.392 -82.4795 -133.698
lowerback 14.5599 -1.19233 7.39594
upperback 3.50305 -0.598246 1.71874
thorax -4.48323 -0.448545 -2.24578
lowerneck -4.45539 1.81539 -1.14783
upperneck 5.42217 2.67028 -3.23785
head 2.51725 1.18867 -0.741931
rclavicle -5.49143e-015 2.56432e-014
rhumerus -40.6447 -19.8532 -70.4274
rradius 24.0023
rwrist 6.91676
rhand -22.1658 14.362
rfingers 7.12502
rthumb 4.24863 -15.5754
lclavicle -5.49143e-015 2.56432e-014
lhumerus -57.153 49.8578 47.4577
lradius 20.9359
lwrist -35.4806
lhand -8.33225 -5.52413
lfingers 7.12502
lthumb 17.5891 23.7002
rfemur 1.27265 21.2802 30.7505
rtibia 27.8337
rfoot -40.1345 -26.2725
rtoes -8.4891
lfemur -15.2076 3.72609 -11.1438
ltibia 48.4601
lfoot -29.422 -1.60123
ltoes -15.529
3326
root 2.05191 17.3666 0.615338 -952.886 -83.0628 -131.223
lowerback 14.5257 -1.11773 7.11328
upperback 3.50969 -0.544845 1.61596
thorax -4.45298 -0.416387 -2.20641
lowerneck -4.56384 1.65855 -1.51388
upperneck 5.3701 2.46986 -2.93114
head 2.50636 1.09171 -0.587218
rclavicle 2.60905e-015 -1.88845e-014
rhumerus -40.9643 -19.8244 -70.9925
rradius 24.029
rwrist 7.16542
rhand -21.5691 14.2664
rfingers 7.12502
rthumb 4.82489 -15.6587
lclavicle 2.60905e-015 -1.88845e-014
lhumerus -55.4729 49.0747 49.4863
lradius 21.5538
lwrist -34.3942
lhand -7.81395 -5.6036
lfingers 7.12502
lthumb 18.0878 23.5754
rfemur 1.17574 20.182 30.2857
rtibia 27.7596
rfoot -39.7241 -25.9135
rtoes -8.16901
lfemur -15.03 3.36863 -11.3848
ltibia 47.9618
lfoot -29.3026 -2.3561
ltoes -15.0556
3327
root 2.06015 17.3755 0.605785 -955.846 -83.6147 -128.32
lowerback 14.5628 -1.05101 6.82722
upperback 3.52137 -0.496853 1.52999
thorax -4.45665 -0.388494 -2.14537
lowerneck -4.7391 1.50683 -1.91143
upperneck 5.38461 2.28382 -2.63827
head 2.53209 0.998984 -0.430822
rclavicle -2.33572e-015 8.94531e-015
rhumerus -41.3028 -19.8426 -71.4846
rradius 24.1118
rwrist 7.7084
rhand -20.9663 14.3588
rfingers 7.12502
rthumb 5.40685 -15.5522
lclavicle -2.33572e-015 8.94531e-015
lhumerus -54.0139 48.3618 51.2889
lradius 22.2286
lwrist -33.5484
lhand -7.25382 -5.74676
lfingers 7.12502
lthumb 18.6267 23.3814
rfemur 1.1082 18.9525 29.8055
rtibia 27.6924
rfoot -39.2225 -25.4206
rtoes -7.91159
lfemur -14.832 3.07953 -11.6194
ltibia 47.4954
lfoot -29.1221 -2.89602
ltoes -14.4192
3328
root 2.06853 17.3844 0.597413 -959.328 -84.1237 -124.864
lowerback 14.5482 -0.982278 6.56931
upperback 3.57527 -0.450871 1.43819
thorax -4.38775 -0.359751 -2.10658
lowerneck -5.01502 1.34187 -2.29564
upperneck 5.37564 2.08452 -2.35703
head 2.57109 0.899696 -0.280383
rclavicle -5.73991e-015 -4.77083e-015
rhumerus -41.5942 -20.1541 -71.8581
rradius 24.1965
rwrist 8.72733
rhand -20.327 14.6415
rfingers 7.12502
rthumb 6.02411 -15.2529
lclavicle -5.73991e-015 -4.77083e-015
lhumerus -52.6403 47.8151 52.907
lradius 22.9432
lwrist -33.0036
lhand -6.72034 -5.96161
lfingers 7.12502
lthumb 19.1398 23.1166
rfemur 0.995314 17.6343 29.3052
rtibia 27.6364
rfoot -38.643 -24.8675
rtoes -7.58563
lfemur -14.6916 2.86812 -11.8466
ltibia 47.0675
lfoot -28.9192 -3.0201
ltoes -14.1678
3329
root 2.07745 17.3918 0.59068 -963.4 -84.6032 -120.833
lowerback 14.6122 -0.913921 6.31869
upperback 3.60345 -0.396186 1.34459
thorax -4.38843 -0.329257 -2.07431
lowerneck -5.25317 1.167 -2.71954
upperneck 5.37382 1.87277 -2.02773
head 2.60678 0.795455 -0.108594
rclavicle -1.29707e-014 4.37326e-015
rhumerus -41.8908 -20.4009 -72.2468
rradius 24.2896
rwrist 9.75885
rhand -19.7088 15.112
rfingers 7.12502
rthumb 6.62095 -14.7645
lclavicle -1.29707e-014 4.37326e-015
lhumerus -51.3643 47.1486 54.4889
lradius 23.7268
lwrist -32.586
lhand -6.32249 -6.2188
lfingers 7.12502
lthumb 19.5223 22.8211
rfemur 0.885382 16.2443 28.7908
rtibia 27.592
rfoot -37.9745 -24.278
rtoes -7.36675
lfemur -14.5558 2.6878 -12.0953
ltibia 46.6774
lfoot -28.7085 -2.71953
ltoes -14.1314
3330
root 2.08695 17.3964 0.58574 -968.258 -85.0133 -116.018
lowerback 14.7207 -0.857219 6.10439
upperback 3.6254 -0.34814 1.26397
thorax -4.4206 -0.303633 -2.04711
lowerneck -5.52406 0.998789 -3.16257
upperneck 5.37282 1.67396 -1.68352
head 2.65116 0.697914 0.0721031
rclavicle -1.10077e-014 -1.43125e-014
rhumerus -42.1402 -20.3142 -72.8062
rradius 24.4837
rwrist 10.4751
rhand -19.1707 15.6019
rfingers 7.12502
rthumb 7.14039 -14.2576
lclavicle -1.10077e-014 -1.43125e-014
lhumerus -49.9611 46.289 56.196
lradius 24.4302
lwrist -31.9764
lhand -6.22717 -6.32458
lfingers 7.12502
lthumb 19.614 22.706
rfemur 0.765728 14.8232 28.2941
rtibia 27.5607
rfoot -37.3227 -23.6283
rtoes -7.10351
lfemur -14.448 2.57762 -12.3216
ltibia 46.3291
lfoot -28.4634 -2.21678
ltoes -14.4172
3331
root 2.09597 17.4016 0.58119 -973.952 -85.3825 -110.363
lowerback 14.8533 -0.799411 5.88366
upperback 3.63691 -0.297681 1.1854
thorax -4.47682 -0.277497 -2.01444
lowerneck -5.78131 0.814021 -3.5884
upperneck 5.36867 1.45534 -1.37979
head 2.69525 0.589861 0.236232
rclavicle 6.01324e-015 4.37326e-015
rhumerus -42.3964 -20.3729 -73.2489
rradius 24.7025
rwrist 11.3653
rhand -18.5505 16.219
rfingers 7.12502
rthumb 7.73905 -13.6194
lclavicle 6.01324e-015 4.37326e-015
lhumerus -48.5439 45.1999 57.9833
lradius 25.1769
lwrist -31.188
lhand -6.3989 -6.31698
lfingers 7.12502
lthumb 19.4489 22.7303
rfemur 0.650679 13.4065 27.8027
rtibia 27.5401
rfoot -36.6557 -22.9993
rtoes -6.92231
lfemur -14.3577 2.49179 -12.5499
ltibia 46.0148
lfoot -28.2515 -1.70002
ltoes -14.7792
